<svg width="211" height="25" viewBox="0 0 211 25" fill="none" xmlns="http://www.w3.org/2000/svg">
<path d="M8.18848 14.8408H13.667L10.9717 6.34473L8.18848 14.8408ZM8.4668 1.4082H13.5645L21.2109 23H16.3184L14.9268 18.5615H6.97266L5.47852 23H0.761719L8.4668 1.4082ZM38.2764 1.4082H44.7656V23H40.5615V8.39551C40.5615 7.97559 40.5664 7.38965 40.5762 6.6377C40.5859 5.87598 40.5908 5.29004 40.5908 4.87988L36.5039 23H32.124L28.0664 4.87988C28.0664 5.29004 28.0713 5.87598 28.0811 6.6377C28.0908 7.38965 28.0957 7.97559 28.0957 8.39551V23H23.8916V1.4082H30.4541L34.3799 18.3857L38.2764 1.4082ZM52.2217 16.335C52.3584 17.3213 52.627 18.0586 53.0273 18.5469C53.7598 19.4355 55.0146 19.8799 56.792 19.8799C57.8564 19.8799 58.7207 19.7627 59.3848 19.5283C60.6445 19.0791 61.2744 18.2441 61.2744 17.0234C61.2744 16.3105 60.9619 15.7588 60.3369 15.3682C59.7119 14.9873 58.7305 14.6504 57.3926 14.3574L55.1074 13.8447C52.8613 13.3369 51.3086 12.7852 50.4492 12.1895C48.9941 11.1934 48.2666 9.63574 48.2666 7.5166C48.2666 5.58301 48.9697 3.97656 50.376 2.69727C51.7822 1.41797 53.8477 0.77832 56.5723 0.77832C58.8477 0.77832 60.7861 1.38379 62.3877 2.59473C63.999 3.7959 64.8438 5.54395 64.9219 7.83887H60.5859C60.5078 6.54004 59.9414 5.61719 58.8867 5.07031C58.1836 4.70898 57.3096 4.52832 56.2646 4.52832C55.1025 4.52832 54.1748 4.7627 53.4814 5.23145C52.7881 5.7002 52.4414 6.35449 52.4414 7.19434C52.4414 7.96582 52.7832 8.54199 53.4668 8.92285C53.9062 9.17676 54.8438 9.47461 56.2793 9.81641L60 10.71C61.6309 11.1006 62.8613 11.623 63.6914 12.2773C64.9805 13.293 65.625 14.7627 65.625 16.6865C65.625 18.6592 64.8682 20.2998 63.3545 21.6084C61.8506 22.9072 59.7217 23.5566 56.9678 23.5566C54.1553 23.5566 51.9434 22.917 50.332 21.6377C48.7207 20.3486 47.915 18.5811 47.915 16.335H52.2217ZM72.8906 23H68.7158V1.4082H72.8906V23ZM85.7812 15.2363C85.5176 15.4023 85.249 15.5391 84.9756 15.6465C84.7119 15.7441 84.3457 15.8369 83.877 15.9248L82.9395 16.1006C82.0605 16.2568 81.4307 16.4473 81.0498 16.6719C80.4053 17.0527 80.083 17.6436 80.083 18.4443C80.083 19.1572 80.2783 19.6748 80.6689 19.9971C81.0693 20.3096 81.5527 20.4658 82.1191 20.4658C83.0176 20.4658 83.8428 20.2021 84.5947 19.6748C85.3564 19.1475 85.752 18.1855 85.7812 16.7891V15.2363ZM83.2471 13.2881C84.0186 13.1904 84.5703 13.0684 84.9023 12.9219C85.498 12.668 85.7959 12.2725 85.7959 11.7354C85.7959 11.0811 85.5664 10.6318 85.1074 10.3877C84.6582 10.1338 83.9941 10.0068 83.1152 10.0068C82.1289 10.0068 81.4307 10.251 81.0205 10.7393C80.7275 11.1006 80.5322 11.5889 80.4346 12.2041H76.4062C76.4941 10.8076 76.8848 9.66016 77.5781 8.76172C78.6816 7.35547 80.5762 6.65234 83.2617 6.65234C85.0098 6.65234 86.5625 6.99902 87.9199 7.69238C89.2773 8.38574 89.9561 9.69434 89.9561 11.6182V18.9424C89.9561 19.4502 89.9658 20.0654 89.9854 20.7881C90.0146 21.335 90.0977 21.7061 90.2344 21.9014C90.3711 22.0967 90.5762 22.2578 90.8496 22.3848V23H86.3086C86.1816 22.6777 86.0938 22.375 86.0449 22.0918C85.9961 21.8086 85.957 21.4863 85.9277 21.125C85.3516 21.75 84.6875 22.2822 83.9355 22.7217C83.0371 23.2393 82.0215 23.498 80.8887 23.498C79.4434 23.498 78.2471 23.0879 77.2998 22.2676C76.3623 21.4375 75.8936 20.2656 75.8936 18.752C75.8936 16.7891 76.6504 15.3682 78.1641 14.4893C78.9941 14.0107 80.2148 13.6689 81.8262 13.4639L83.2471 13.2881ZM96.9287 17.9023C97.0166 18.6445 97.207 19.1719 97.5 19.4844C98.0176 20.041 98.9746 20.3193 100.371 20.3193C101.191 20.3193 101.841 20.1973 102.319 19.9531C102.808 19.709 103.052 19.3428 103.052 18.8545C103.052 18.3857 102.856 18.0293 102.466 17.7852C102.075 17.541 100.625 17.1211 98.1152 16.5254C96.3086 16.0762 95.0342 15.5146 94.292 14.8408C93.5498 14.1768 93.1787 13.2197 93.1787 11.9697C93.1787 10.4951 93.7549 9.23047 94.9072 8.17578C96.0693 7.11133 97.7002 6.5791 99.7998 6.5791C101.792 6.5791 103.413 6.97949 104.663 7.78027C105.923 8.57129 106.646 9.94336 106.831 11.8965H102.656C102.598 11.3594 102.446 10.9346 102.202 10.6221C101.743 10.0557 100.962 9.77246 99.8584 9.77246C98.9502 9.77246 98.3008 9.91406 97.9102 10.1973C97.5293 10.4805 97.3389 10.8125 97.3389 11.1934C97.3389 11.6719 97.5439 12.0186 97.9541 12.2334C98.3643 12.458 99.8145 12.8438 102.305 13.3906C103.965 13.7812 105.21 14.3721 106.04 15.1631C106.86 15.9639 107.271 16.9648 107.271 18.166C107.271 19.748 106.68 21.042 105.498 22.0479C104.326 23.0439 102.51 23.542 100.049 23.542C97.5391 23.542 95.6836 23.0146 94.4824 21.96C93.291 20.8955 92.6953 19.543 92.6953 17.9023H96.9287ZM119.18 6.62305C120.166 6.62305 121.06 6.79395 121.86 7.13574C122.671 7.47754 123.335 8 123.853 8.70312C124.292 9.29883 124.561 9.91406 124.658 10.5488C124.756 11.1738 124.805 12.1992 124.805 13.625V23H120.542V13.2881C120.542 12.4287 120.396 11.7354 120.103 11.208C119.722 10.4658 118.999 10.0947 117.935 10.0947C116.831 10.0947 115.991 10.4658 115.415 11.208C114.849 11.9404 114.565 12.9902 114.565 14.3574V23H110.405V1.48145H114.565V9.11328C115.171 8.18555 115.869 7.54102 116.66 7.17969C117.461 6.80859 118.301 6.62305 119.18 6.62305ZM145.794 10.112C147.402 12.068 148.602 13.736 149.394 15.116L147.936 16.106C147.072 14.606 145.878 12.908 144.354 11.012L145.794 10.112ZM151.788 19.4C150.648 21.428 148.818 23.186 146.298 24.674L145.146 23.27C148.122 21.518 150.078 19.358 151.014 16.79C151.71 14.63 152.076 11.828 152.112 8.384H153.876C153.876 11.78 153.504 14.678 152.76 17.078L152.544 17.726C153.936 19.526 155.13 21.332 156.126 23.144L154.812 24.458C154.044 22.85 153.036 21.164 151.788 19.4ZM140.376 21.434C140.748 21.122 140.934 20.702 140.934 20.174V8.654H142.698V20.57C143.982 20.03 145.272 19.376 146.568 18.608L147.054 20.264C145.206 21.308 143.172 22.238 140.952 23.054L140.376 21.434ZM161.904 10.562H158.952V8.888H169.968V10.004C169.68 11.288 169.35 12.548 168.978 13.784H172.56V14.792C172.032 17.192 170.952 19.22 169.32 20.876C170.616 21.788 172.128 22.616 173.856 23.36L172.722 24.89C170.85 24.026 169.272 23.084 167.988 22.064C166.416 23.276 164.502 24.248 162.246 24.98L161.256 23.396C163.368 22.688 165.138 21.836 166.566 20.84C165.15 19.448 164.052 17.918 163.272 16.25C162.624 19.97 161.13 22.826 158.79 24.818L157.476 23.666C160.368 21.242 161.844 17.36 161.904 12.02V10.562ZM167.898 19.76C169.266 18.488 170.22 17.018 170.76 15.35H166.854C167.226 14.258 167.64 12.662 168.096 10.562H163.632V12.488L163.614 12.956C164.262 15.572 165.69 17.84 167.898 19.76ZM191.856 17.852L192.126 19.508L190.434 19.778V24.8H188.706V20.066L183.288 20.93L183.036 19.274L188.706 18.356V8.312H190.434V18.086L191.856 17.852ZM185.034 9.23C186.234 10.082 187.272 10.952 188.148 11.84L186.978 13.028C186.246 12.224 185.196 11.348 183.828 10.4L185.034 9.23ZM184.494 13.37C185.742 14.258 186.804 15.17 187.68 16.106L186.456 17.312C185.688 16.46 184.632 15.536 183.288 14.54L184.494 13.37ZM175.836 12.956H178.644V10.706C177.588 10.85 176.766 10.946 176.178 10.994L175.854 9.392C178.17 9.212 180.246 8.852 182.082 8.312L182.676 9.914C181.884 10.13 181.116 10.304 180.372 10.436V12.956H182.676V14.594H180.372V15.296C181.332 16.016 182.304 16.844 183.288 17.78L182.334 19.238C181.482 18.194 180.828 17.426 180.372 16.934V24.8H178.644V17.042C177.96 18.662 177.09 20.108 176.034 21.38L175.278 19.472C176.73 18.02 177.786 16.394 178.446 14.594H175.836V12.956ZM194.106 24.656L193.746 23.054C194.214 23.126 194.652 23.162 195.06 23.162C195.492 23.162 195.708 22.916 195.708 22.424V18.608C194.916 18.92 194.262 19.16 193.746 19.328L193.314 17.636C194.106 17.456 194.904 17.222 195.708 16.934V13.046H193.674V11.408H195.708V8.258H197.364V11.408H199.128V13.046H197.364V16.25C197.928 15.986 198.528 15.68 199.164 15.332V17.006C198.696 17.258 198.096 17.558 197.364 17.906V22.856C197.364 24.056 196.788 24.656 195.636 24.656H194.106ZM199.632 10.706H203.844V8.294H205.5V10.706H209.712V12.344H205.5V14.918H209.028V16.43C208.44 18.326 207.474 19.94 206.13 21.272C207.258 22.112 208.62 22.844 210.216 23.468L209.334 24.872C207.642 24.128 206.184 23.276 204.96 22.316C203.604 23.372 201.948 24.242 199.992 24.926L199.182 23.504C201.018 22.916 202.542 22.166 203.754 21.254C202.35 19.85 201.408 18.272 200.928 16.52H199.992V14.918H203.844V12.344H199.632V10.706ZM202.53 16.52C202.962 17.924 203.76 19.172 204.924 20.264C206.004 19.184 206.814 17.936 207.354 16.52H202.53Z" fill="#F5F5F5"/>
</svg>
